HIERARCHY
ROOT Hips
{
	OFFSET	0.00	0.00	0.00
	CHANNELS 6 Xposition Yposition Zposition Zrotation Xrotation Yrotation
	JOINT Spine
	{
		OFFSET	 0.00	0.01	 0.00
		CHANNELS 3 Zrotation Xrotation Yrotation
		JOINT Spine1
		{
			OFFSET	 0.00	 2.45913012437421	 0.00
			CHANNELS 3 Zrotation Xrotation Yrotation
            JOINT Neck
            {
                OFFSET	 0.00	 2.48462964506057	 0.00
                CHANNELS 3 Zrotation Xrotation Yrotation
                JOINT Head
                {
                    OFFSET	 0.00	 0.927524780924562	 0.00
                    CHANNELS 3 Zrotation Xrotation Yrotation
                    End Site 
                    {
                        OFFSET	 0.00	 1.14999962169752	 0.00
                    }
                }
            }
			JOINT LeftShoulder
			{
				OFFSET	 0.00	 2.48462964506057	 0.00
				CHANNELS 3 Zrotation Xrotation Yrotation
				JOINT LeftUpArm
				{
					OFFSET	 0.00	 1.24881979654096	 0.00
					CHANNELS 3 Zrotation Xrotation Yrotation
					JOINT LeftForeArm
					{
						OFFSET	 0.00	2.59758046908119	 0.00
						CHANNELS 3 Zrotation Xrotation Yrotation
						JOINT LeftHand
						{
							OFFSET	 0.00	2.45542024364365	 0.00
							CHANNELS 3 Zrotation Xrotation Yrotation
							JOINT LeftHandThumb 
							{
								OFFSET	 0.00	0.00	 0.00
								CHANNELS 3 Zrotation Xrotation Yrotation
								End Site
								{
									OFFSET	 0.00	0.00	1.00000003353624
								}
							}
							JOINT L_Wrist_End 
							{
								OFFSET	 0.00	0.99999967115358	 0.00
								CHANNELS 3 Zrotation Xrotation Yrotation
								End Site 
								{
									OFFSET	 0.00	 0.00	 0.00
								}
							}
						}
					}
				}
			}
			JOINT RightShoulder
			{
				OFFSET	 0.00	 2.48462964506057	 0.00
				CHANNELS 3 Zrotation Xrotation Yrotation
				JOINT RightUpArm
				{
					OFFSET	 0.00	 1.24881979654096	 0.00
					CHANNELS 3 Zrotation Xrotation Yrotation
					JOINT RightForeArm
					{
						OFFSET	 0.00	2.59758046908119	 0.00
						CHANNELS 3 Zrotation Xrotation Yrotation
						JOINT RightHand
						{
							OFFSET	 0.00	2.45542024364365	 0.00
							CHANNELS 3 Zrotation Xrotation Yrotation
							JOINT RightHandThumb 
							{
								OFFSET	 0.00	0.00	 0.00
								CHANNELS 3 Zrotation Xrotation Yrotation
								End Site
								{
									OFFSET	 0.00	0.00	1.00000003353624
								}
							}
							JOINT R_Wrist_End 
							{
								OFFSET	 0.00	0.99999967115358	 0.00
								CHANNELS 3 Zrotation Xrotation Yrotation
								End Site 
								{
									OFFSET	 0.00	 0.00	 0.00
								}
							}
						}
					}
				}
			}
		}
	}
	JOINT LeftUpLeg
	{
		OFFSET	 1.2719394002717	 0.00	 0.00
		CHANNELS 3 Zrotation Xrotation Yrotation
		JOINT LeftLowLeg
		{
			OFFSET	 0.00	-4.3429100912261	 0.00
			CHANNELS 3 Zrotation Xrotation Yrotation
			JOINT LeftFoot
			{
				OFFSET	 0.00	-4.48767017425826	 0.00
				CHANNELS 3 Zrotation Xrotation Yrotation
				JOINT LeftToeBase
                {
                    OFFSET	 0.00	0.00	 1.51507020887566
                    CHANNELS 3 Zrotation Xrotation Yrotation
                    End Site 
                    {
                        OFFSET	 0.00	0.00	 0.75000010571191
                    }
                }
			}
		}
	}
	JOINT RightUpLeg
	{
		OFFSET	 -1.2719393604653	 0.00	 0.00
		CHANNELS 3 Zrotation Xrotation Yrotation
		JOINT RightLowLeg
		{
			OFFSET	 0.00	-4.3429100912261	 0.00
			CHANNELS 3 Zrotation Xrotation Yrotation
			JOINT RightFoot
			{
				OFFSET	 0.00	-4.48767017425826	 0.00
				CHANNELS 3 Zrotation Xrotation Yrotation
				JOINT RightToeBase
                {
                    OFFSET	 0.00	0.00	 1.51507020887566
                    CHANNELS 3 Zrotation Xrotation Yrotation
                    End Site 
                    {
                        OFFSET	 0.00	0.00	 0.749999965609858
                    }
                }   
			}
		}
	}
}
MOTION 
Frames:	20 
Frame Time: 0.02 
  -0.8976280212402343 12.539000244140626 9.108920288085937 -166.294 85.4985 513.927 10.0933 -11.377 16.0072 -8.36377 13.9131 6.33215 13.8028 33.0031 -30.973 44.9775 -68.7405 66.0342 -112.4655 -2.58714 3.05139 -50.2173 -1.814 -18.9347 0.0 1.64792 0.0 16.6249 -13.6276 27.2602 0.0 0.0 0.0 0.0 0.0 0.0 113.0967 5.24901 -5.00484 53.7587 49.7717 -368.051 0.0 6.72307 0.0 -9.72608 -5.03739 -31.346 0.0 0.0 0.0 0.0 0.0 0.0 -8.3235 -10.4743 -10.7739 0.0 27.233 0.0 4.84184 -9.360399 15.6512 0.0 -12.972 0.0 5.13919 -23.1414 364.318 0.0 68.6866 0.0 21.3253 5.26248 -3.88033 0.0 -23.56761 0.0 
  -0.9743589782714843 12.370400390625 9.161430053710937 -155.119 85.1246 503.208 10.6028 -11.518 15.508 -8.08475 13.8387 5.51829 14.3228 33.6952 -30.7175 46.3512 -68.6209 68.0212 -112.6511 -1.72837 3.48072 -50.4336 0.669943 -12.2183 0.0 4.45329 0.0 13.0959 -13.7566 22.5895 0.0 0.0 0.0 0.0 0.0 0.0 113.3548 4.84163 -5.38661 54.5332 50.5608 -368.154 0.0 6.29959 0.0 -8.9599 -5.43352 -32.2281 0.0 0.0 0.0 0.0 0.0 0.0 -7.13151 -8.63938 -11.6506 0.0 26.1962 0.0 3.95841 -9.349701 15.8303 0.0 -13.04543 0.0 5.80494 -24.542 364.955 0.0 64.949 0.0 20.0015 4.1253996 -6.8123 0.0 -23.17341 0.0 
  -1.0514600372314453 12.211300048828125 9.209829711914063 -149.952 84.6755 498.435 10.8117 -11.6825 15.0778 -7.93675 13.8226 4.94438 15.0611 34.0252 -30.8386 48.1913 -68.5417 70.3251 -112.9598 -0.702513 3.8297 -49.9588 3.76322 -7.82461 0.0 6.62385 0.0 11.2037 -13.3057 21.4302 0.0 0.0 0.0 0.0 0.0 0.0 113.367004 4.59711 -4.89925 55.797 50.5069 -368.908 0.0 6.12891 0.0 -8.75223 -5.73699 -33.1 0.0 0.0 0.0 0.0 0.0 0.0 -6.21442 -7.19482 -12.2567 0.0 25.3241 0.0 3.26886 -8.950399 15.8486 0.0 -13.52734 0.0 6.27658 -25.7303 366.135 0.0 60.0923 0.0 18.626 3.0212002 -9.64293 0.0 -22.60396 0.0 
  -1.1295999908447265 12.0522998046875 9.25094970703125 -147.879 84.3462 496.814 10.792 -11.9383 14.6508 -7.85167 13.9368 4.54413 15.692 34.1326 -30.9874 49.378 -68.2817 71.7074 -113.229904 0.487641 4.035 -49.0731 6.44852 -2.08849 0.0 9.8864 0.0 10.2732 -13.4975 20.8821 0.0 0.0 0.0 0.0 0.0 0.0 113.1939 4.25576 -4.38443 57.1369 50.413 -369.549 0.0 6.17006 0.0 -8.7107 -5.54629 -33.7241 0.0 0.0 0.0 0.0 0.0 0.0 -5.45837 -6.01848 -12.3054 0.0 24.7761 0.0 2.84099 -8.373199 15.3734 0.0 -14.075373 0.0 6.59458 -26.4541 367.952 0.0 54.1557 0.0 17.0597 2.1450005 -12.8523 0.0 -22.18826 0.0 
  -1.2102100372314453 11.8947998046875 9.282230224609375 -146.562 84.0845 496.203 10.6435 -12.0362 14.2109 -7.77051 13.795 4.09602 16.088 34.1614 -31.0698 49.5245 -67.8877 71.7721 -113.5282 1.56846 4.35166 -47.6654 9.23687 3.38744 0.0 13.4655 0.0 11.1751 -13.736 21.1111 0.0 0.0 0.0 0.0 0.0 0.0 113.0238 3.87216 -4.20804 58.099 50.4382 -370.411 0.0 6.40876 0.0 -8.87563 -5.4695 -33.662 0.0 0.0 0.0 0.0 0.0 0.0 -4.75318 -5.11142 -12.2801 0.0 24.6609 0.0 2.15128 -8.015499 14.3465 0.0 -14.861338 0.0 6.7377 -26.6344 370.158 0.0 47.2146 0.0 15.6353 1.6001997 -16.1498 0.0 -22.372879 0.0 
  -1.2916099548339843 11.7352001953125 9.303690185546875 -146.068 83.8381 496.589 10.4542 -12.1627 13.7531 -7.68716 13.5977 3.64483 16.1511 34.2016 -30.9677 48.7781 -67.4512 70.6911 -113.801 2.42666 4.848 -45.9669 12.3515 7.66363 0.0 16.9357 0.0 13.2297 -12.8329 22.9493 0.0 0.0 0.0 0.0 0.0 0.0 112.7016 3.54139 -4.08225 59.0969 50.4232 -371.4 0.0 6.59353 0.0 -9.30048 -5.26171 -32.8082 0.0 0.0 0.0 0.0 0.0 0.0 -4.12337 -4.4128 -12.372 0.0 24.8603 0.0 1.66371 -7.717699 13.334 0.0 -15.782409 0.0 6.64761 -26.3479 372.87 0.0 39.579 0.0 14.7456 1.6913996 -18.8975 0.0 -22.41313 0.0 
  -1.370399932861328 11.569300537109376 9.314509887695312 -143.35 84.029 494.804 10.2748 -11.9544 13.3646 -7.62683 13.6243 3.23903 15.8556 34.0929 -30.763 47.1891 -67.0007 68.7043 -113.9116 3.35605 5.83847 -44.265 15.7428 10.0111 0.0 20.7036 0.0 15.786 -12.1457 25.8232 0.0 0.0 0.0 0.0 0.0 0.0 112.2572 3.28651 -4.21568 59.8033 50.6858 -372.438 0.0 6.68329 0.0 -9.88288 -5.359 -31.4434 0.0 0.0 0.0 0.0 0.0 0.0 -3.73299 -3.25871 -12.9198 0.0 25.1813 0.0 1.13257 -7.4981003 12.7415 0.0 -16.74771 0.0 6.18325 -25.1565 376.428 0.0 31.823 0.0 14.5905 1.6954002 -19.929 0.0 -21.9843 0.0 
  -1.446219940185547 11.39989990234375 9.31510986328125 -141.443 84.285 493.941 10.2482 -11.8402 13.1024 -7.95004 13.6943 2.8276 15.7267 34.317 -30.7108 45.8929 -66.7592 67.092 -113.925 3.97978 6.39487 -42.6381 19.2753 11.3801 0.0 23.5904 0.0 18.8835 -10.0928 27.9541 0.0 0.0 0.0 0.0 0.0 0.0 111.9467 3.23986 -4.3295 60.3112 50.9165 -372.623 0.0 6.41046 0.0 -10.0037 -5.30478 -31.1382 0.0 0.0 0.0 0.0 0.0 0.0 -3.52251 -2.19911 -13.7635 0.0 25.6885 0.0 0.555968 -7.4204006 12.3024 0.0 -17.4631 0.0 5.37695 -23.8147 380.909 0.0 24.6464 0.0 14.8526 1.8774996 -19.6339 0.0 -22.22726 0.0 
  -1.52802001953125 11.22199951171875 9.305609741210937 -137.709 84.7272 491.049 10.2306 -11.7365 12.9985 -8.2451 13.9489 2.66674 15.7533 35.0687 -30.8498 45.2199 -67.0542 66.1162 -113.8699 4.46138 7.11795 -41.0625 23.096 11.4036 0.0 26.0342 0.0 20.6398 -7.7582 29.2974 0.0 0.0 0.0 0.0 0.0 0.0 111.7774 3.49474 -4.49287 60.1748 51.0201 -372.262 0.0 6.09375 0.0 -9.75989 -5.4007 -31.3408 0.0 0.0 0.0 0.0 0.0 0.0 -3.22711 -0.698847 -14.3127 0.0 25.9601 0.0 0.339007 -7.432699 11.9299 0.0 -18.65342 0.0 4.56933 -22.3428 385.426 0.0 18.9247 0.0 13.6445 2.1414003 -19.4013 0.0 -21.67564 0.0 
  -1.617480010986328 11.039100341796875 9.287940063476562 -133.222 84.9526 487.369 10.3304 -11.7748 12.9684 -8.51316 14.0808 2.53906 15.6905 36.4351 -30.7257 45.3351 -67.8189 65.7085 -113.6606 4.96806 6.75782 -40.2306 25.9197 10.9213 0.0 28.0932 0.0 22.294 -5.02213 30.2174 0.0 0.0 0.0 0.0 0.0 0.0 111.951004 3.86299 -4.71209 59.5838 51.0065 -371.522 0.0 5.81929 0.0 -9.33727 -5.30372 -32.356 0.0 0.0 0.0 0.0 0.0 0.0 -2.63435 0.709777 -14.5215 0.0 26.2852 0.0 0.00901753 -7.809601 11.2231 0.0 -19.139679 0.0 4.10194 -21.2324 388.709 0.0 15.2018 0.0 13.2236 2.7248 -18.6813 0.0 -22.48832 0.0 
  -1.7152799987792968 10.842900390625 9.260360107421874 -125.169 85.1598 480.17 10.3047 -11.8975 12.8105 -8.33339 14.3026 2.50026 15.2536 38.062 -30.2372 44.8193 -68.6245 64.3238 -113.2889 5.19694 6.70047 -40.0453 28.7782 9.54815 0.0 30.5599 0.0 23.1815 -3.80088 29.1055 0.0 0.0 0.0 0.0 0.0 0.0 112.179 4.17881 -5.0666 58.7025 51.001 -371.4 0.0 5.75953 0.0 -9.11191 -5.43534 -32.3989 0.0 0.0 0.0 0.0 0.0 0.0 -1.84214 2.35746 -14.6514 0.0 26.7705 0.0 -0.162669 -8.330099 10.5589 0.0 -20.24766 0.0 4.35041 -20.4002 389.788 0.0 14.3744 0.0 14.4761 2.8707 -17.5899 0.0 -22.99074 0.0 
  -1.8203799438476562 10.635400390625 9.225369873046875 -118.018 85.0136 474.026 10.2214 -12.322 12.5409 -7.84669 14.2542 2.44996 14.8166 39.7462 -29.8678 43.5721 -69.3705 62.271 -112.7929 5.07109 6.43316 -40.6236 31.1171 8.58222 0.0 33.3866 0.0 23.3302 -3.86261 25.8496 0.0 0.0 0.0 0.0 0.0 0.0 112.4116 4.37077 -5.5275 57.9618 50.883 -371.365 0.0 5.66987 0.0 -9.40234 -5.19189 -32.2947 0.0 0.0 0.0 0.0 0.0 0.0 -0.867657 3.55773 -15.1162 0.0 27.8633 0.0 -0.542451 -9.051399 9.89248 0.0 -21.19713 0.0 5.23012 -19.9725 388.757 0.0 15.839 0.0 18.1152 3.3478003 -15.9045 0.0 -21.82711 0.0 
  -1.9213099670410156 10.423599853515626 9.183579711914062 -112.563 84.8183 469.702 10.1312 -12.7263 12.2572 -7.40476 13.8921 2.29163 14.1994 41.496 -29.2506 41.4995 -69.8367 59.2308 -112.044 4.83067 5.67333 -42.3805 32.3785 7.72761 0.0 36.6871 0.0 24.0502 -4.30711 24.8655 0.0 0.0 0.0 0.0 0.0 0.0 112.6269 4.39091 -5.93302 57.6987 50.7711 -370.893 0.0 5.37203 0.0 -10.0617 -4.92279 -32.6973 0.0 0.0 0.0 0.0 0.0 0.0 -0.153651 4.17103 -15.9799 0.0 29.936 0.0 -0.864938 -9.539 9.69823 0.0 -22.81158 0.0 5.816 -19.6715 384.661 0.0 18.083 0.0 19.9283 6.79961 -13.0766 0.0 -23.895409 0.0 
  -2.0169500732421874 10.21780029296875 9.156270141601562 -103.338 84.3667 461.426 10.4846 -12.6703 12.1843 -7.08155 13.7662 2.02761 13.7174 43.0055 -28.7599 40.3374 -70.4398 57.1929 -111.7659 4.25801 4.90881 -43.6929 33.0319 7.61119 0.0 40.6393 0.0 24.4998 -4.8491 20.3801 0.0 0.0 0.0 0.0 0.0 0.0 113.1671 4.40823 -6.13655 57.1283 50.4767 -370.705 0.0 5.43052 0.0 -10.5456 -4.74999 -32.7579 0.0 0.0 0.0 0.0 0.0 0.0 0.573257 4.47233 -16.7835 0.0 33.1883 0.0 -1.65005 -9.299 9.63295 0.0 -25.3569 0.0 6.63786 -19.2548 380.69 0.0 20.578 0.0 16.7439 7.67529 -10.1696 0.0 -21.300499 0.0 
  -2.1108099365234376 10.018099975585937 9.146519775390624 -94.3244 83.8085 453.371 10.7105 -12.4666 11.9528 -6.53144 13.9647 1.74671 13.2315 43.715 -28.4404 38.6133 -70.656 55.0621 -111.5317 3.45061 4.63638 -45.0101 33.3987 8.03012 0.0 44.1927 0.0 26.9676 -2.17836 16.4358 0.0 0.0 0.0 0.0 0.0 0.0 113.5332 4.36541 -6.48773 56.6924 50.4323 -370.416 0.0 5.68618 0.0 -11.1341 -4.47893 -32.528 0.0 0.0 0.0 0.0 0.0 0.0 1.27766 4.06179 -16.7563 0.0 37.6497 0.0 -2.76479 -7.6620007 9.074 0.0 -29.885601 0.0 7.56266 -18.5542 377.399 0.0 23.142 0.0 15.1032 6.66125 -8.26264 0.0 -20.36447 0.0 
  -2.2018499755859375 9.820830078125 9.152429809570313 -88.9777 83.1131 449.153 10.9206 -12.5373 11.6447 -5.85688 14.1052 1.47424 12.9745 44.2307 -28.5381 35.9173 -70.5371 52.3742 -110.9086 2.88599 4.58565 -47.0251 32.9412 9.30156 0.0 46.2922 0.0 33.6519 2.74214 13.2251 0.0 0.0 0.0 0.0 0.0 0.0 113.5351 4.37455 -6.95543 56.6236 50.2577 -369.762 0.0 5.71509 0.0 -11.7436 -3.67462 -32.0638 0.0 0.0 0.0 0.0 0.0 0.0 2.14055 2.44326 -15.906 0.0 43.2843 0.0 -5.20713 -4.7672997 7.36903 0.0 -33.9961 0.0 8.68739 -17.554 376.405 0.0 24.8152 0.0 13.7169 5.5504103 -8.34802 0.0 -19.87497 0.0 
  -2.2861900329589844 9.631079711914062 9.166090087890625 -85.5253 82.4821 447.136 10.9618 -12.4321 11.2826 -4.98026 13.6996 1.14893 12.708 45.045 -28.7355 33.1217 -70.6729 49.3017 -110.2342 2.39402 4.45199 -49.5177 31.8421 12.0495 0.0 46.6056 0.0 44.0136 7.3366 12.8596 0.0 0.0 0.0 0.0 0.0 0.0 113.1703 4.29246 -7.23823 56.9944 49.7845 -369.316 0.0 5.30392 0.0 -12.2856 -3.16746 -31.6004 0.0 0.0 0.0 0.0 0.0 0.0 3.02692 -0.166306 -14.7681 0.0 49.6988 0.0 -8.89735 -1.5760002 5.20774 0.0 -32.971703 0.0 9.90369 -15.8845 377.08 0.0 24.9238 0.0 12.9795 4.5003996 -10.4635 0.0 -20.62961 0.0 
  -2.3586199951171873 9.449619750976563 9.185330200195313 -82.7647 81.7855 446.061 11.2213 -12.1914 11.0337 -4.19985 13.0686 0.74252 12.6318 46.161 -29.1169 30.9888 -71.1924 46.7401 -109.8128 2.0125 4.01174 -51.7621 29.925 15.095 0.0 45.6811 0.0 51.4353 10.0489 14.1529 0.0 0.0 0.0 0.0 0.0 0.0 112.7805 4.21197 -7.16646 57.2863 48.8967 -369.241 0.0 4.78944 0.0 -12.3534 -3.10412 -30.6963 0.0 0.0 0.0 0.0 0.0 0.0 3.88065 -3.25562 -13.8826 0.0 56.1168 0.0 -12.443 1.5031004 4.43407 0.0 -28.765999 0.0 10.8967 -13.8071 377.258 0.0 24.0403 0.0 12.3964 3.5510998 -12.4815 0.0 -20.519741 0.0 
  -2.417019958496094 9.275239868164062 9.20656005859375 -78.1419 81.2102 443.26 11.4952 -11.7006 10.9346 -3.52442 12.7566 0.464034 13.2202 46.7013 -30.4252 28.9924 -71.5233 44.7415 -110.014404 2.03263 4.16013 -52.6187 27.7989 17.1304 0.0 44.2166 0.0 53.9065 11.3207 15.0222 0.0 0.0 0.0 0.0 0.0 0.0 112.6154 3.81552 -7.19358 56.8056 48.4022 -369.394 0.0 4.38958 0.0 -11.7921 -3.91076 -30.949 0.0 0.0 0.0 0.0 0.0 0.0 4.41912 -6.17151 -13.2321 0.0 62.0297 0.0 -18.527 3.1850004 4.57248 0.0 -17.02322 0.0 11.4623 -11.3185 376.661 0.0 22.7322 0.0 12.2764 2.7135 -13.6643 0.0 -20.28869 0.0 
  -2.466779937744141 9.105750122070312 9.228410034179687 -76.968 81.1324 443.955 11.6643 -11.6008 10.9335 -3.61673 12.4043 0.276572 15.0506 46.7844 -33.0141 28.0964 -71.4361 44.7769 -110.4749 1.94383 4.63293 -52.3338 25.3897 18.1948 0.0 42.8177 0.0 50.4618 9.60764 18.4213 0.0 0.0 0.0 0.0 0.0 0.0 112.6473 3.66283 -6.57127 56.6109 47.0073 -368.324 0.0 4.34167 0.0 -10.7598 -4.10389 -32.6954 0.0 0.0 0.0 0.0 0.0 0.0 4.45564 -9.57304 -12.2019 0.0 66.9836 0.0 -21.6693 2.9991999 6.37222 0.0 -14.961975 0.0 11.5273 -9.66773 375.344 0.0 21.8108 0.0 12.018 1.9545002 -14.11 0.0 -20.18384 0.0 
